REM DIRINDEX 1\2,1\4,1\5,1\6,1\7,1\3\8,1\3\9,1\3\10
REM DIRNAME cjc113,folder01,folder02,folder03,folder04,folder05,folder06,folder07,folder08,folder09
TITLE ""
FILE "DB4500_5th_4B_28.mp3" MP3
  TRACK 01 AUDIO
    TITLE "8:cjc113_2806"
    INDEX 01 00:00:00
  TRACK 02 AUDIO
    TITLE "0:"
    INDEX 01 00:01:21
  TRACK 03 AUDIO
    TITLE "9:cjc113_2807"
    INDEX 01 00:01:40
  TRACK 04 AUDIO
    TITLE "0:"
    INDEX 01 00:02:43
  TRACK 05 AUDIO
    TITLE "10:cjc113_2808"
    INDEX 01 00:02:65
  TRACK 06 AUDIO
    TITLE "0:"
    INDEX 01 00:06:45
  TRACK 07 AUDIO
    TITLE "8:cjc113_2809"
    INDEX 01 00:07:19
  TRACK 08 AUDIO
    TITLE "0:"
    INDEX 01 00:08:26
  TRACK 09 AUDIO
    TITLE "9:cjc113_2810"
    INDEX 01 00:08:50
  TRACK 10 AUDIO
    TITLE "0:"
    INDEX 01 00:09:63
  TRACK 11 AUDIO
    TITLE "10:cjc113_2811"
    INDEX 01 00:10:12
  TRACK 12 AUDIO
    TITLE "0:"
    INDEX 01 00:13:39
  TRACK 13 AUDIO
    TITLE "8:cjc113_2812"
    INDEX 01 00:14:11
  TRACK 14 AUDIO
    TITLE "0:"
    INDEX 01 00:15:21
  TRACK 15 AUDIO
    TITLE "9:cjc113_2813"
    INDEX 01 00:15:44
  TRACK 16 AUDIO
    TITLE "0:"
    INDEX 01 00:16:57
  TRACK 17 AUDIO
    TITLE "10:cjc113_2814"
    INDEX 01 00:17:04
  TRACK 18 AUDIO
    TITLE "0:"
    INDEX 01 00:20:22
  TRACK 19 AUDIO
    TITLE "8:cjc113_2815"
    INDEX 01 00:20:69
  TRACK 20 AUDIO
    TITLE "0:"
    INDEX 01 00:22:01
  TRACK 21 AUDIO
    TITLE "9:cjc113_2816"
    INDEX 01 00:22:25
  TRACK 22 AUDIO
    TITLE "0:"
    INDEX 01 00:23:46
  TRACK 23 AUDIO
    TITLE "10:cjc113_2817"
    INDEX 01 00:23:69
  TRACK 24 AUDIO
    TITLE "0:"
    INDEX 01 00:27:02
  TRACK 25 AUDIO
    TITLE "8:cjc113_2818"
    INDEX 01 00:27:45
  TRACK 26 AUDIO
    TITLE "0:"
    INDEX 01 00:28:45
  TRACK 27 AUDIO
    TITLE "9:cjc113_2819"
    INDEX 01 00:28:68
  TRACK 28 AUDIO
    TITLE "0:"
    INDEX 01 00:30:14
  TRACK 29 AUDIO
    TITLE "10:cjc113_2820"
    INDEX 01 00:30:38
  TRACK 30 AUDIO
    TITLE "0:"
    INDEX 01 00:32:54
  TRACK 31 AUDIO
    TITLE "8:cjc113_2821"
    INDEX 01 00:33:26
  TRACK 32 AUDIO
    TITLE "0:"
    INDEX 01 00:34:43
  TRACK 33 AUDIO
    TITLE "9:cjc113_2822"
    INDEX 01 00:34:69
  TRACK 34 AUDIO
    TITLE "0:"
    INDEX 01 00:37:48
  TRACK 35 AUDIO
    TITLE "10:cjc113_2823"
    INDEX 01 00:37:71
  TRACK 36 AUDIO
    TITLE "0:"
    INDEX 01 00:40:42
  TRACK 37 AUDIO
    TITLE "8:cjc113_2824"
    INDEX 01 00:41:16
  TRACK 38 AUDIO
    TITLE "0:"
    INDEX 01 00:42:23
  TRACK 39 AUDIO
    TITLE "9:cjc113_2825"
    INDEX 01 00:42:47
  TRACK 40 AUDIO
    TITLE "0:"
    INDEX 01 00:43:58
  TRACK 41 AUDIO
    TITLE "10:cjc113_2826"
    INDEX 01 00:44:05
  TRACK 42 AUDIO
    TITLE "0:"
    INDEX 01 00:46:66
  TRACK 43 AUDIO
    TITLE "8:cjc113_2827"
    INDEX 01 00:47:40
  TRACK 44 AUDIO
    TITLE "0:"
    INDEX 01 00:48:57
  TRACK 45 AUDIO
    TITLE "9:cjc113_2828"
    INDEX 01 00:49:06
  TRACK 46 AUDIO
    TITLE "0:"
    INDEX 01 00:50:37
  TRACK 47 AUDIO
    TITLE "10:cjc113_2829"
    INDEX 01 00:50:54
  TRACK 48 AUDIO
    TITLE "0:"
    INDEX 01 00:53:37
  TRACK 49 AUDIO
    TITLE "8:cjc113_2830"
    INDEX 01 00:54:11
  TRACK 50 AUDIO
    TITLE "0:"
    INDEX 01 00:55:12
  TRACK 51 AUDIO
    TITLE "9:cjc113_2831"
    INDEX 01 00:55:34
  TRACK 52 AUDIO
    TITLE "0:"
    INDEX 01 00:56:57
  TRACK 53 AUDIO
    TITLE "10:cjc113_2832"
    INDEX 01 00:57:03
  TRACK 54 AUDIO
    TITLE "0:"
    INDEX 01 00:59:49
  TRACK 55 AUDIO
    TITLE "8:cjc113_2833"
    INDEX 01 01:00:21
  TRACK 56 AUDIO
    TITLE "0:"
    INDEX 01 01:01:34
  TRACK 57 AUDIO
    TITLE "9:cjc113_2834"
    INDEX 01 01:01:58
  TRACK 58 AUDIO
    TITLE "0:"
    INDEX 01 01:03:10
  TRACK 59 AUDIO
    TITLE "10:cjc113_2835"
    INDEX 01 01:03:33
  TRACK 60 AUDIO
    TITLE "0:"
    INDEX 01 01:05:40
  TRACK 61 AUDIO
    TITLE "8:cjc113_2836"
    INDEX 01 01:06:12
  TRACK 62 AUDIO
    TITLE "0:"
    INDEX 01 01:07:17
  TRACK 63 AUDIO
    TITLE "9:cjc113_2837"
    INDEX 01 01:07:39
  TRACK 64 AUDIO
    TITLE "0:"
    INDEX 01 01:09:52
  TRACK 65 AUDIO
    TITLE "10:cjc113_2838"
    INDEX 01 01:09:71
  TRACK 66 AUDIO
    TITLE "0:"
    INDEX 01 01:12:30
  TRACK 67 AUDIO
    TITLE "8:cjc113_2839"
    INDEX 01 01:13:00
  TRACK 68 AUDIO
    TITLE "0:"
    INDEX 01 01:14:17
  TRACK 69 AUDIO
    TITLE "9:cjc113_2840"
    INDEX 01 01:14:37
  TRACK 70 AUDIO
    TITLE "0:"
    INDEX 01 01:15:60
  TRACK 71 AUDIO
    TITLE "10:cjc113_2841"
    INDEX 01 01:16:09
  TRACK 72 AUDIO
    TITLE "0:"
    INDEX 01 01:18:39
